<svg width="26" height="30" viewBox="0 0 26 30" fill="none" xmlns="http://www.w3.org/2000/svg">
<path d="M24.7875 14.3876L13.7875 0.387592C13.694 0.268069 13.5744 0.171407 13.438 0.104931C13.3016 0.0384537 13.1518 0.00390625 13 0.00390625C12.8482 0.00390625 12.6984 0.0384537 12.562 0.104931C12.4256 0.171407 12.306 0.268069 12.2125 0.387592L1.2125 14.3876C1.07247 14.561 0.996094 14.7772 0.996094 15.0001C0.996094 15.223 1.07247 15.4392 1.2125 15.6126L12.2125 29.6126C12.306 29.7321 12.4256 29.8288 12.562 29.8953C12.6984 29.9617 12.8482 29.9963 13 29.9963C13.1518 29.9963 13.3016 29.9617 13.438 29.8953C13.5744 29.8288 13.694 29.7321 13.7875 29.6126L24.7875 15.6126C24.9275 15.4392 25.0039 15.223 25.0039 15.0001C25.0039 14.7772 24.9275 14.561 24.7875 14.3876ZM14 18.4501V3.88759L22.425 14.6126L14 18.4501ZM12 18.4501L3.575 14.6126L12 3.88759V18.4501ZM12 20.6501V26.1126L5.325 17.6126L12 20.6501Z" fill="#3F1050"/>
</svg>
