<?xml version="1.0" encoding="UTF-8"?><svg xmlns="http://www.w3.org/2000/svg" viewBox="0 0 1051.68 1071.99"><defs><style>.d{stroke:#fff;stroke-width:3.68px;}.d,.e,.f,.g,.h,.i,.j{fill:none;stroke-miterlimit:10;}.e{stroke:#edffff;stroke-width:4.38px;}.f{stroke:#daffff;stroke-width:5.09px;}.g{stroke:#91ffff;stroke-width:7.91px;}.h{stroke:#c8ffff;stroke-width:5.79px;}.i{stroke:#b6ffff;stroke-width:6.5px;}.j{stroke:#a3ffff;stroke-width:7.21px;}</style></defs><g id="a"/><g id="b"><g id="c"><g><path class="d" d="M805.61,567.4l-198.02,285.61c-10.73,15.48-30.68,14.56-43.86-1.3l-239.46-288.19c-3.71-4.47-2.25-14.37,3.16-22.18l108.31-156.21c7.46-10.76,19.56-17.42,27.22-14.75l306.47,106.69c2.37,.83,4.15,2.38,4.95,4.34l32.14,78.37c1.04,2.53,.72,5.3-.89,7.62Z"/><path class="e" d="M845.43,544.39l-236.06,340.48c-12.79,18.45-36.57,17.35-52.29-1.55l-285.46-343.55c-4.42-5.32-2.69-17.13,3.77-26.44l129.11-186.22c8.9-12.83,23.32-20.77,32.45-17.59l365.34,127.18c2.83,.98,4.94,2.83,5.9,5.17l38.31,93.43c1.24,3.02,.86,6.31-1.06,9.08Z"/><path class="f" d="M885.25,521.37l-274.1,395.34c-14.85,21.42-42.47,20.15-60.71-1.8L218.97,516.01c-5.14-6.18-3.12-19.89,4.37-30.7l149.91-216.22c10.33-14.9,27.08-24.11,37.68-20.42l424.21,147.67c3.29,1.14,5.74,3.29,6.85,6l44.48,108.48c1.44,3.51,1,7.33-1.23,10.55Z"/><path class="h" d="M925.06,498.36l-312.14,450.21c-16.91,24.39-48.36,22.95-69.14-2.05L166.33,492.25c-5.85-7.04-3.55-22.65,4.98-34.96l170.72-246.23c11.76-16.96,30.84-27.46,42.91-23.26l483.08,168.17c3.74,1.3,6.54,3.75,7.8,6.84l50.65,123.54c1.64,4,1.14,8.35-1.4,12.01Z"/><path class="i" d="M964.88,475.34l-350.18,505.07c-18.97,27.37-54.25,25.74-77.56-2.3L113.68,468.49c-6.56-7.9-3.99-25.41,5.59-39.22L310.79,153.04c13.2-19.03,34.59-30.81,48.14-26.09l541.95,188.66c4.2,1.46,7.33,4.2,8.75,7.67l56.83,138.6c1.84,4.48,1.28,9.37-1.57,13.47Z"/><path class="j" d="M1004.7,452.33l-388.22,559.93c-21.04,30.34-60.15,28.54-85.99-2.55L61.03,444.73c-7.28-8.76-4.42-28.17,6.2-43.48L279.56,95.01c14.63-21.1,38.35-34.15,53.37-28.93l600.82,209.15c4.65,1.62,8.13,4.66,9.7,8.5l63,153.65c2.04,4.97,1.42,10.38-1.74,14.94Z"/><path class="g" d="M1044.52,429.31l-426.26,614.8c-23.1,33.31-66.04,31.34-94.41-2.8L8.39,420.97c-7.99-9.61-4.85-30.93,6.8-47.74L248.32,36.98c16.06-23.17,42.11-37.5,58.59-31.76L966.61,234.87c5.11,1.78,8.93,5.12,10.65,9.34l69.17,168.71c2.24,5.46,1.56,11.4-1.91,16.4Z"/></g></g></g></svg>