<svg width="33" height="33" viewBox="0 0 33 33" fill="none" xmlns="http://www.w3.org/2000/svg">
<path d="M4.14583 17.8736L4.24326 17.7147L10.1186 8.17892C10.2045 8.03931 10.4064 8.05375 10.4713 8.2054C11.4529 10.4876 12.2998 13.326 11.9031 15.093C11.7337 15.8201 11.2696 16.8047 10.7475 17.7147C10.6802 17.8471 10.6059 17.9771 10.527 18.1023C10.4899 18.1601 10.4272 18.1937 10.3599 18.1937H4.31752C4.15509 18.1937 4.05996 18.0108 4.14583 17.8736Z" fill="#F8FFFF"/>
<path d="M30.3343 19.6454V21.1549C30.3343 21.2415 30.2833 21.3186 30.209 21.3523C29.7542 21.5545 28.1972 22.296 27.5498 23.2301C25.8976 25.6158 24.6353 29.0271 21.8136 29.0271H10.042C5.86992 29.0271 2.48901 25.5075 2.48901 21.1645V21.0249C2.48901 20.9093 2.57949 20.8155 2.69088 20.8155H9.25312C9.38303 20.8155 9.47816 20.9406 9.4666 21.073C9.42017 21.516 9.49908 21.9686 9.70095 22.3802C10.0908 23.2012 10.8983 23.714 11.7708 23.714H15.0194V21.0827H11.8079C11.6432 21.0827 11.5457 20.8852 11.6409 20.7456C11.6756 20.6902 11.7151 20.6325 11.7569 20.5675C12.0609 20.1197 12.4948 19.424 12.9264 18.6319C13.2211 18.0975 13.5065 17.5269 13.7362 16.954C13.7826 16.8504 13.8197 16.7445 13.8568 16.641C13.9195 16.458 13.9845 16.2871 14.0309 16.1162C14.0773 15.9717 14.1144 15.8201 14.1515 15.678C14.2606 15.1917 14.307 14.6765 14.307 14.1421C14.307 13.9327 14.2978 13.7136 14.2792 13.5041C14.2699 13.2754 14.2421 13.0467 14.2142 12.818C14.1956 12.6158 14.1608 12.416 14.1237 12.2065C14.0773 11.9008 14.0123 11.5975 13.9381 11.2917L13.9125 11.1762C13.8568 10.9667 13.8105 10.7669 13.7455 10.5575C13.5622 9.90023 13.351 9.25988 13.1282 8.66045C13.047 8.4221 12.9542 8.19341 12.8614 7.96471C12.7245 7.62045 12.5852 7.30749 12.4576 7.01136C12.3927 6.87653 12.337 6.75375 12.2813 6.62858C12.2186 6.48653 12.1537 6.34449 12.0887 6.20971C12.0423 6.10619 11.9889 6.00988 11.9518 5.91358L11.555 5.15284C11.4993 5.04932 11.5921 4.92653 11.7012 4.95784L14.1841 5.65597H14.191C14.1956 5.65597 14.198 5.6584 14.2003 5.6584L14.5275 5.75227L14.8871 5.85823L15.0194 5.89671V4.36562C15.0194 3.62653 15.5902 3.0271 16.2957 3.0271C16.6484 3.0271 16.9686 3.17636 17.1983 3.41949C17.428 3.66267 17.5719 3.99488 17.5719 4.36562V6.63823L17.8364 6.71523C17.8573 6.72249 17.8782 6.7321 17.8967 6.74653C17.9617 6.7971 18.0545 6.87171 18.1729 6.96323C18.2657 7.04023 18.3655 7.13414 18.4861 7.23045C18.7251 7.43023 19.0106 7.68784 19.3238 7.98397C19.4074 8.05858 19.4886 8.13562 19.5628 8.21267C19.9666 8.60267 20.4191 9.06006 20.8507 9.56562C20.9713 9.70767 21.0897 9.8521 21.2103 10.0038C21.331 10.1578 21.4586 10.3095 21.57 10.4612C21.7162 10.6634 21.874 10.8728 22.0109 11.0919C22.0759 11.1954 22.1501 11.3014 22.2128 11.4049C22.3891 11.6817 22.5446 11.9682 22.6931 12.2547C22.7558 12.3871 22.8207 12.5315 22.8764 12.6736C23.0412 13.0564 23.1711 13.4464 23.2546 13.8364C23.2802 13.9206 23.2987 14.0121 23.308 14.094V14.1132C23.3359 14.2288 23.3452 14.3515 23.3544 14.4767C23.3916 14.8764 23.373 15.276 23.2895 15.678C23.2546 15.849 23.2083 16.0102 23.1526 16.1812C23.0969 16.3449 23.0412 16.5158 22.9693 16.6771C22.83 17.0117 22.6653 17.3464 22.4703 17.6593C22.4077 17.7749 22.3334 17.8977 22.2592 18.0132C22.178 18.136 22.0944 18.2515 22.0202 18.3647C21.9181 18.5091 21.809 18.6608 21.6976 18.7956C21.5979 18.9377 21.4958 19.0797 21.3844 19.2049C21.2289 19.3951 21.0804 19.5756 20.9249 19.749C20.8321 19.8621 20.7323 19.9777 20.6302 20.0812C20.5305 20.1967 20.4283 20.3002 20.3355 20.3965C20.1801 20.5578 20.0501 20.683 19.941 20.7865L19.6858 21.0297C19.6487 21.0634 19.6 21.0827 19.5489 21.0827H17.5719V23.714H20.0594C20.6163 23.714 21.1454 23.5093 21.5723 23.1338C21.7185 23.0014 22.3566 22.4284 23.1108 21.5641C23.1363 21.5352 23.1688 21.5136 23.2059 21.504L30.0768 19.4432C30.2044 19.4047 30.3343 19.5058 30.3343 19.6454Z" fill="#F8FFFF"/>
<path d="M30.3343 19.6454V21.1549C30.3343 21.2415 30.2833 21.3186 30.209 21.3523C29.7542 21.5545 28.1972 22.296 27.5498 23.2301C25.8976 25.6158 24.6353 29.0271 21.8136 29.0271H10.042C5.86992 29.0271 2.48901 25.5075 2.48901 21.1645V21.0249C2.48901 20.9093 2.57949 20.8155 2.69088 20.8155H9.25312C9.38303 20.8155 9.47816 20.9406 9.4666 21.073C9.42017 21.516 9.49908 21.9686 9.70095 22.3802C10.0908 23.2012 10.8983 23.714 11.7708 23.714H15.0194V21.0827H11.8079C11.6432 21.0827 11.5457 20.8852 11.6409 20.7456C11.6756 20.6902 11.7151 20.6325 11.7569 20.5675C12.0609 20.1197 12.4948 19.424 12.9264 18.6319C13.2211 18.0975 13.5065 17.5269 13.7362 16.954C13.7826 16.8504 13.8197 16.7445 13.8568 16.641C13.9195 16.458 13.9845 16.2871 14.0309 16.1162C14.0773 15.9717 14.1144 15.8201 14.1515 15.678C14.2606 15.1917 14.307 14.6765 14.307 14.1421C14.307 13.9327 14.2978 13.7136 14.2792 13.5041C14.2699 13.2754 14.2421 13.0467 14.2142 12.818C14.1956 12.6158 14.1608 12.416 14.1237 12.2065C14.0773 11.9008 14.0123 11.5975 13.9381 11.2917L13.9125 11.1762C13.8568 10.9667 13.8105 10.7669 13.7455 10.5575C13.5622 9.90023 13.351 9.25988 13.1282 8.66045C13.047 8.4221 12.9542 8.19341 12.8614 7.96471C12.7245 7.62045 12.5852 7.30749 12.4576 7.01136C12.3927 6.87653 12.337 6.75375 12.2813 6.62858C12.2186 6.48653 12.1537 6.34449 12.0887 6.20971C12.0423 6.10619 11.9889 6.00988 11.9518 5.91358L11.555 5.15284C11.4993 5.04932 11.5921 4.92653 11.7012 4.95784L14.1841 5.65597H14.191C14.1956 5.65597 14.198 5.6584 14.2003 5.6584L14.5275 5.75227L14.8871 5.85823L15.0194 5.89671V4.36562C15.0194 3.62653 15.5902 3.0271 16.2957 3.0271C16.6484 3.0271 16.9686 3.17636 17.1983 3.41949C17.428 3.66267 17.5719 3.99488 17.5719 4.36562V6.63823L17.8364 6.71523C17.8573 6.72249 17.8782 6.7321 17.8967 6.74653C17.9617 6.7971 18.0545 6.87171 18.1729 6.96323C18.2657 7.04023 18.3655 7.13414 18.4861 7.23045C18.7251 7.43023 19.0106 7.68784 19.3238 7.98397C19.4074 8.05858 19.4886 8.13562 19.5628 8.21267C19.9666 8.60267 20.4191 9.06006 20.8507 9.56562C20.9713 9.70767 21.0897 9.8521 21.2103 10.0038C21.331 10.1578 21.4586 10.3095 21.57 10.4612C21.7162 10.6634 21.874 10.8728 22.0109 11.0919C22.0759 11.1954 22.1501 11.3014 22.2128 11.4049C22.3891 11.6817 22.5446 11.9682 22.6931 12.2547C22.7558 12.3871 22.8207 12.5315 22.8764 12.6736C23.0412 13.0564 23.1711 13.4464 23.2546 13.8364C23.2802 13.9206 23.2987 14.0121 23.308 14.094V14.1132C23.3359 14.2288 23.3452 14.3515 23.3544 14.4767C23.3916 14.8764 23.373 15.276 23.2895 15.678C23.2546 15.849 23.2083 16.0102 23.1526 16.1812C23.0969 16.3449 23.0412 16.5158 22.9693 16.6771C22.83 17.0117 22.6653 17.3464 22.4703 17.6593C22.4077 17.7749 22.3334 17.8977 22.2592 18.0132C22.178 18.136 22.0944 18.2515 22.0202 18.3647C21.9181 18.5091 21.809 18.6608 21.6976 18.7956C21.5979 18.9377 21.4958 19.0797 21.3844 19.2049C21.2289 19.3951 21.0804 19.5756 20.9249 19.749C20.8321 19.8621 20.7323 19.9777 20.6302 20.0812C20.5305 20.1967 20.4283 20.3002 20.3355 20.3965C20.1801 20.5578 20.0501 20.683 19.941 20.7865L19.6858 21.0297C19.6487 21.0634 19.6 21.0827 19.5489 21.0827H17.5719V23.714H20.0594C20.6163 23.714 21.1454 23.5093 21.5723 23.1338C21.7185 23.0014 22.3566 22.4284 23.1108 21.5641C23.1363 21.5352 23.1688 21.5136 23.2059 21.504L30.0768 19.4432C30.2044 19.4047 30.3343 19.5058 30.3343 19.6454Z" fill="#F8FFFF"/>
</svg>
