<svg width="33" height="33" viewBox="0 0 33 33" fill="none" xmlns="http://www.w3.org/2000/svg">
<path fill-rule="evenodd" clip-rule="evenodd" d="M16.4983 17.0373C14.2348 17.0373 12.3982 15.1923 12.3982 12.9144C12.3982 10.6365 14.2348 8.7915 16.4983 8.7915C18.7618 8.7915 20.5985 10.6365 20.5985 12.9144C20.5985 15.1923 18.7618 17.0373 16.4983 17.0373ZM14.7157 12.9144C14.7157 13.9048 15.5142 14.707 16.4983 14.707C17.4825 14.707 18.281 13.9048 18.281 12.9144C18.281 11.924 17.4825 11.1218 16.4983 11.1218C15.5142 11.1218 14.7157 11.924 14.7157 12.9144Z" fill="#F8FFFF"/>
<path fill-rule="evenodd" clip-rule="evenodd" d="M3.30664 12.9199L11.1504 5.0271H21.8463L29.6901 12.9199L16.4984 26.1794L3.30664 12.9199ZM22.5594 10.0463C19.2267 6.68029 13.77 6.68029 10.4373 10.0463L7.58505 12.9144L10.4373 15.7825C13.77 19.1485 19.2267 19.1485 22.5594 15.7825L25.4117 12.9144L22.5594 10.0463Z" fill="#F8FFFF"/>
</svg>
