<?xml version="1.0" encoding="UTF-8"?><svg xmlns="http://www.w3.org/2000/svg" viewBox="0 0 400 156.75"><defs><style>.d{fill:#fff;}</style></defs><g id="a"/><g id="b"><g id="c"><g><path class="d" d="M371.26,62.72c0-5.25,0-14.13-7.24-14.13-2,0-4,.26-6,1.38-2.38,1.25-4.38,8.12-4.87,10.5,0,.75-.38,3.63-.38,4,0,2.13-.49,6.88-.49,12,0,3.62,.22,7.45,.94,10.81,.36,1.67,.85,3.23,1.5,4.58,1.47,3.07,3.76,5.11,7.31,5.11,2.42,0,4.22-1.41,5.56-3.61,1.53-2.5,2.46-6.02,3.02-9.67,.65-4.26,.8-8.69,.8-11.85,0-2.5-.13-4.25-.13-4.25v-4.87Z"/><path class="d" d="M302.07,56.85l-2.15,16.18-1.34,10.07c1.99,.12,4.75,.38,7,.38,0-.18-.13-.69-1.44-10.61-.49-3.79-1.17-8.96-2.07-16.02Z"/><path class="d" d="M235.34,48.35v1.13c0,.88,.5,7.87,.5,8.87l.08,25.29v.87l.04,12.09c8.45-.23,12.74-2.82,14.82-9.69,.16-.53,.31-1.09,.45-1.67,1.05-4.48,1.36-10.52,1.36-18.52,0-17.38-8-17.87-17.25-18.37Z"/><path class="d" d="M386.59,35.17c-.11-.1-.22-.2-.34-.3-7.02-5.94-18.05-8.05-25.37-8.05-5.37,0-10.56,1.51-15.85,4.61-.06,.04-.12,.07-.18,.11-6.36,3.95-14.61,15.88-16.7,22.56-.2,.62-.44,1.55-.83,3.21-1.13-4.15-2.22-8.31-3.25-12.45-.02-.09-.05-.18-.07-.28-.2-.7-.75-2.35-1.84-5.56-.23-.67-.54-1.61-.56-1.66-3.16-8.95-9.64-9.91-12.27-9.91-.51,0-2.59-.13-3.96-.21-2.82-.17-4.76-.29-5.91-.29h-2c-2.66,0-8.19,0-12.01,4.85-.13,.17-.25,.34-.37,.51-.75,1.13-1.27,2.2-1.56,3.27-1.97,5.77-3.82,11.55-5.55,17.29-2.36-7.01-6.2-12.56-11.56-16.79-8.02-6.31-18.96-9.25-34.44-9.25-2.42,0-4.43,.07-6.63,.19,2.19-3.93,4.37-7.62,6.5-10.89,.86-1.32,1.32-2.86,1.32-4.43v-1.19c0-.87-.14-1.74-.42-2.57-2.65-7.93-12.81-7.93-16.64-7.93-3.48,0-7.38,.26-11.15,.52-3.57,.24-6.94,.47-9.72,.47-1.93,0-4.85,0-7.77,1.25-.95,.4-1.81,.99-2.54,1.72-.15,.15-.36,.35-.5,.48-1.37,.96-2.43,2.33-3,3.93l-1.74,4.88c-.38,.63-1.07,1.75-1.65,2.7-1.81,2.95-3.31,5.4-4.24,7.05-.68,.93-1.31,2.07-2.09,3.5-.23,.41-.55,1-.73,1.3-.14,.19-.26,.38-.38,.58-.36,.6-.72,1.2-1.06,1.79-2.38-3.99-4.72-8.08-6.91-11.89-.64-1.12-1.27-2.22-1.88-3.29-.34-.59-.65-1.16-.96-1.71-2.57-4.65-6.46-11.69-17-11.69h-.6c-1.76-.31-5.68-.8-14.5-.8-8.05,0-13.47,.44-17.58,1.41-2.53,.6-4.62,2.38-5.62,4.79-1,2.4-.78,5.14,.58,7.36,2.7,4.4,5.26,8.83,7.7,13.22h-6.64s-2.3,.1-4.38,.56c-.74,.07-1.63,.21-2.58,.5-1.16-.92-2.54-1.57-4.07-1.82-.44-.07-.86-.11-1.3-.11-.49,0-2.49-.14-3.82-.22-2.63-.17-4.29-.28-5.21-.28h-15.87c-2.15,0-4.22,.86-5.74,2.38l-1.38,1.38c-.93,.93-1.61,2.06-2,3.29-.16,.37-.37,.87-.54,1.48-.94,2.45-5.8,13.03-10.03,21.86-.33-.56-.68-1.12-1.03-1.67-.38-.63-1.12-1.76-3.07-4.7-.79-1.19-1.9-2.88-2.44-3.71-1.55-3.79-3.84-8.26-4.8-10.08-3.55-6.78-4.59-8.18-6.96-9.36-1.13-.56-2.37-.86-3.63-.86h-5c-4.85,0-8.36,0-13.46,.53-4.35,.37-8.78,4.06-8.78,9.84v12.62c0,.69,.08,2.3,.26,6.08,.1,2.02,.23,4.78,.24,5.29,0,3.71,.09,14.02,.19,24.95,.09,10.54,.19,21.44,.19,25.17,0,2.49,.11,4.72,.34,6.64,1.19,10.25,6.73,11.83,9.97,11.85,0,0,12.4,.12,12.43,.12,.15,0,.3,0,.45-.01,.12,0,.25,0,.38,0,.03,0,.93,0,.93,0,8.45,0,11.58-4.29,12.73-7.89,.25-.8,.38-1.63,.38-2.46v-6.37c0-.25-.01-.5-.03-.79,.44,.5,1.02,1.09,1.81,1.87,1.81,1.77,3.87,3.79,7.35,3.79h7.62c4.98,0,7.94-3.45,8.91-4.58,.18-.21,.35-.44,.51-.67,.35-.5,.66-1.02,.96-1.57v2.83c0,.38,.03,.77,.08,1.15,.05,.33,.11,.8,.17,1.34,.52,4.16,.89,6.53,1.57,8.33,.74,2.14,2.34,3.97,4.53,5.06,.72,.36,1.5,.61,2.3,.75,2.91,.49,5.02,.49,7.46,.49h2.12c.83,0,2.49-.07,5.12-.2,1.54-.07,3.86-.18,4.38-.18,1.33,0,2.64-.33,3.8-.95,1.31,.86,2.85,1.33,4.44,1.33h4.5c.61,0,1.23-.06,3.87-.32,.24-.02,.47-.05,.7-.07-.44,.82-.8,1.46-.96,1.74-1.29,1.96-2.09,3.72-2.09,6.38v1.19c0,2,0,4.74,1.87,8,.03,.05,.06,.1,.09,.15,3.41,5.69,10.63,7.39,16.54,8.23,.07,.01,.14,.02,.21,.03,6.56,.76,11.23,.87,14.94,.87,.76,0,1.48,0,2.19,0,.64,0,1.27,0,1.89,0,2.33,0,6.23,0,9.44-2.58,.56-.45,1.07-.98,1.49-1.56,3.54-4.87,6.74-10.95,9.82-16.82,1.15-2.18,2.24-4.26,3.29-6.16l4.71,7.58c.4,.7,.99,1.59,2.2,3.37,.49,.73,1.23,1.8,1.47,2.2,.09,.16,.18,.32,.28,.47,.15,.23,.52,.94,.8,1.46,1.99,3.76,5,9.45,10.72,10.97,.68,.18,1.39,.27,2.09,.27h11.33c6.45,0,13.38-.35,20.28-2.88,.85-.31,1.64-.76,2.34-1.34,2.29-1.87,6.56-5.36,6.56-12.44,0-3.8-1.54-6.67-2.99-8.73h.04c13.8,0,24.34-2.11,32.23-6.53,1.23,3.28,3.98,4.66,5,5.07,.44,.18,.89,.31,1.36,.41,.1,.03,.2,.06,.29,.09,.84,.27,1.79,.58,3.12,.58,.72,0,3.13,.08,5.26,.16,3.04,.11,6.17,.22,7.74,.22h5.87c5.08,0,9.37-4.29,9.37-9.37v-1.92c.08-.8,.24-1.67,.45-2.59h.06c.73,0,3.52,.1,5.77,.18h.18l1.07,4.12c.02,.06,.03,.12,.05,.18,1.79,6.27,6.37,8.51,10.05,8.51h18.5c3.08,0,6.17-1.56,7.92-4.58,5.01,3.64,10.65,5.52,16.67,5.52,.63,0,1.28-.02,1.92-.06,4.46-.03,9.2-.78,13.38-2.12,2.82-.88,5.03-2.49,6.65-3.67l.14-.1c11.95-8.47,17.76-25.31,17.76-51.46,0-12.25-1.04-26.3-13.41-38.02ZM94.73,62.09c0,2.56-.07,5.12-.16,7.67-.28,7.4-.84,14.77-.84,22.2s.5,14.63,.5,22.12c0,.75-.25,1.37-.88,1.87-1.37,0-8.12,.38-9.5,.38h-2.12c-2.25,0-3.87,0-6.12-.38,0,0-.5-.25-.5-.5-.63-1.37-1.12-6.37-1.38-8.12v-41.99c-2.16,4.08-3.63,8.62-5.62,12.95-.08,.18-.17,.37-.26,.55-2.38,5.38-4.75,10.62-7.12,16.25-.63,1.62-1.63,4.75-2.75,6.37-.75,.87-1.63,1.75-2.75,1.75h-7.62c-.25,0-3.13-2.87-3.25-3.13-3.09-4.39-8.13-15.16-11.99-22.87-1.3-2.59-2.47-4.84-3.38-6.38,0,1.45,.03,3.38,.09,5.59,.2,8.41,.71,20.87,.91,26.41,0,.37,.38,3.13,.38,3.62v6.37c-.88,2.75-4.5,2.13-6.75,2.25l-12.37-.12c-2.25,0-2.25-9-2.25-10.38,0-4.83-.16-21.15-.26-34.13,0-.41,0-.82,0-1.22-.06-6.67-.1-12.29-.1-14.77,0-1.13-.5-10.25-.5-11.37v-12.62c0-.63,.5-1.75,1.37-1.75,4.75-.5,8-.5,12.74-.5h5c.5,.25,5.87,10.13,8.12,15.87,.5,.88,5.37,8.13,5.88,9,1.73,2.68,3.21,5.6,4.8,8.5,.93,1.7,1.89,3.38,2.95,5,.25,.37,.13,.49,.88,.49,.7-1.12,1.99-3.62,3.58-6.82,4.95-9.99,12.69-26.74,13.54-29.3,0-.25,.5-1.13,.5-1.37l1.37-1.37h15.88c1.37,0,7.75,.5,9,.5,.75,.13,1,1.25,1,1.75v31.62Zm16.87,53.75c-.37,0-5,.5-5.5,.5h-4.5l-.5-.5s-.37-3.12-.37-4.5-.5-12.74-.5-14.12c0-1-.5-8.25-.5-9.12V54.35c0-3.5,.5-19.87,.5-23.37,.62-.62,1.88-.87,2.75-.87,.62-.26,3-.5,3.12-.5h11.63s1.5,.25,1.87,1c.65,1.3,.83,18.29,.87,24.74,0,.25,0,.49,0,.7,0,.64,0,1.13,0,1.43l-.25,19.62c.25,7.12,1,15.12,1,22.37v.88c0,1.87-.5,10.12-.5,11.87,0,1.63-.88,3-2.75,3.25-.62,0-5.62,.38-6.37,.38Zm108.86,23.51c-5.96,2.19-12.12,2.39-17.49,2.39h-11.33c-2.98-.79-5.37-6.76-6.76-8.94-.4-.8-3.38-4.97-3.78-5.76l-10.73-17.29c0-.4-.79-1.19-.79-1.59-2.58,2.58-4.77,6.96-6.56,10.14-3.98,6.96-8.55,16.89-13.32,23.45-.99,.8-2.78,.8-4.37,.8-4.57,0-9.54,.2-18.08-.8-2.78-.4-8.94-1.39-10.73-4.37-.8-1.39-.8-2.39-.8-3.98v-1.19c0-.6,0-.79,.8-1.99,.79-1.19,7.95-14.9,8.94-16.3,7.75-12.12,15.5-24.05,22.46-36.77l2.19-4.37-1.39-2.98c-.4-.6-2.58-4.17-2.98-4.97-.4-.79-3.18-5.17-3.58-5.76-8.74-14.9-17.89-34.98-30.21-55.05,4.17-.99,10.13-1.19,15.7-1.19s10.93,.2,13.71,.79h1.39c6.56,0,7.95,4.17,10.93,9.34,4.57,7.95,10.14,17.89,15.5,25.84q.79,0,1.19-.8c2.78-3.97,4.77-7.55,7.16-11.53,.4-.4,2.58-4.77,2.98-4.97,1.39-2.58,6.16-10.14,6.56-10.93l1.99-5.56c.4-.2,1.59-1.39,1.59-1.39,1.39-.6,3.18-.6,4.57-.6,6.16,0,14.51-.99,20.87-.99,4.77,0,8.35,.6,8.94,2.38v1.19c-11.92,18.28-24.25,47.3-35.97,65.78v.99c0,2.98,2.39,5.17,3.78,7.55,8.74,14.51,18.28,32.39,27.62,46.5,1.59,2.19,3.58,3.97,3.58,6.76,0,2.98-1.39,4.37-3.58,6.16Zm8.75-23.01c-4.12,0-6.13,0-10.5-.38-.37,0-2.25-.75-2.25-1.37l-.37-4.5s-.09-17.06-.33-29c-.02-1.07-.05-2.11-.07-3.08-.03-1.24-.07-2.4-.1-3.42-.37-14.74-.49-29.25-.49-44,.49-1.37,6.87-1.37,7.74-1.37,3.5-.25,5.88-.37,9.13-.37,24.62,0,40.24,7.88,40.74,36.5v4.75c0,4.35-.13,8.38-.46,12.12-.24,2.77-.6,5.38-1.09,7.81-3.52,17.46-14.08,26.32-41.95,26.32Zm107.61-3.13c0,.88-.13,2.25-1.25,2.25h-18.5c-1.37,0-1.99-1.75-2.25-2.62l-2.25-8.62c0-.25-.49-1.13-.49-1.37-1.75,0-10.38-.38-12.12-.38-.5,0-4-.5-4.5-.5h-.62c-.5,0-1.12-.25-1.25,.5-.75,3.38-2,6.88-2.25,10.37v2.25c0,.63-.62,1.25-1.25,1.25h-5.87c-2.62,0-11.12-.38-13-.38-.13,0-1.5-.5-1.75-.5-.62-.25-.5-.87-.5-1.5v-1.13c0-1.87,4-16.24,4.5-18.12l1.14-4.33,2.68-10.19,4.81-18.35c2.75-10.13,5.87-20.25,9.25-30.12,0-.25,.5-1,.5-1,1.37-1.75,3.62-1.75,5.62-1.75h1.99c1.87,0,8.38,.5,9.87,.5,2.5,0,3.88,2.38,4.63,4.5,.38,1.13,2,5.88,2.25,6.75,3.09,12.44,6.63,24.72,10.27,37.01,1.25,4.21,2.52,8.43,3.78,12.65,.57,1.9,1.14,3.8,1.7,5.7,1.63,5.62,3.75,11,4.88,16.75v.38Zm52.55-21.21c-2.02,8.12-5.59,15.53-11.86,19.96-1.37,1-2.88,2.12-4.5,2.62-3.5,1.13-7.5,1.75-11.25,1.75-13.84,1.09-23.41-11.98-27.53-26.36-.61-2.12-1.1-4.26-1.47-6.39l-.33-2.31-.05-.32v-14.12l.38-2.62c.25-1.37,1-4.63,1-4.87,.37-1.5,1.75-7.75,2.12-8.88,1.5-4.87,8.62-15.25,13.25-18.12,3.62-2.12,7.5-3.5,11.75-3.5,6.37,0,15.25,2,20.12,6.13,9.37,8.87,10.87,19.12,10.87,32.12,0,3.33-.09,7.02-.37,10.84-.35,4.64-.99,9.48-2.13,14.08Z"/></g></g></g></svg>
